<svg width="261" height="296" viewBox="0 0 261 296" fill="none" xmlns="http://www.w3.org/2000/svg">
<path fill-rule="evenodd" clip-rule="evenodd" d="M214.732 132.086C221.913 137.251 225.503 144.558 225.503 154.006C225.503 162.951 221.472 170.131 213.409 175.548C205.473 180.839 194.891 183.485 181.663 183.485C167.302 183.485 155.712 180.083 146.894 173.281C138.201 166.352 133.54 157.03 132.91 145.314H131.783C129.221 138.828 122.897 134.239 115.5 134.239C108.103 134.239 101.779 138.828 99.2172 145.314H97.9517C97.9517 146.804 98.0052 148.281 98.1122 149.746C98.0381 150.4 98 151.065 98 151.739V277.739C98 287.404 105.835 295.239 115.5 295.239C125.165 295.239 133 287.404 133 277.739V200.721C134.679 201.635 136.413 202.504 138.201 203.326C150.799 209.121 165.286 212.019 181.663 212.019C204.969 212.019 223.928 206.539 238.542 195.579C253.155 184.493 260.461 169.816 260.461 151.55C260.461 140.59 257.816 131.331 252.525 123.772C247.36 116.087 239.36 109.537 228.526 104.12C217.692 98.7026 203.52 94.0415 186.009 90.1362C168.625 86.231 156.594 82.1367 149.917 77.8535C143.24 73.5703 139.902 67.2085 139.902 58.7681C139.902 49.8237 143.492 42.5801 150.673 37.0371C157.854 31.4941 167.806 28.7227 180.529 28.7227C192.875 28.7227 203.079 32.187 211.142 39.1157C219.33 46.0444 223.424 54.2959 223.424 63.8701H224.417C224.144 65.1148 224 66.4097 224 67.7393C224 77.4042 231.611 85.2393 241 85.2393C250.389 85.2393 258 77.4042 258 67.7393C258 66.4097 257.856 65.1148 257.583 63.8701H258.572C258.572 45.2256 251.328 29.9194 236.841 17.9517C222.479 5.98389 203.709 0 180.529 0C172.617 0 165.208 0.746414 158.302 2.23926H13C5.82031 2.23926 0 8.05956 0 15.2393C0 22.419 5.82031 28.2393 13 28.2393H115.521C108.469 37.5027 104.943 48.0569 104.943 59.9019C104.943 69.98 107.4 78.6724 112.313 85.979C117.352 93.2856 125.037 99.5845 135.367 104.875C145.823 110.167 159.869 114.702 177.506 118.481C195.269 122.26 207.677 126.795 214.732 132.086Z" fill="#6F00FF"/>
</svg>
